<?xml version="1.0" encoding="utf-8"?>
<!-- Generator: Adobe Illustrator 22.0.0, SVG Export Plug-In . SVG Version: 6.00 Build 0)  -->
<svg version="1.1" id="Layer_1" xmlns="http://www.w3.org/2000/svg" xmlns:xlink="http://www.w3.org/1999/xlink" x="0px" y="0px"
	 viewBox="0 0 750 750" style="enable-background:new 0 0 750 750;" xml:space="preserve">
<style type="text/css">
	.st0{fill:#FF9130;}
	.st1{fill:#FFFFFF;}
</style>
<circle class="st0" cx="375" cy="375" r="226.6"/>
<path class="st1" d="M329.2,362.3c-23.9,23.9-62.7,23.9-86.6,0c-23.9-23.9-23.9-62.7,0-86.6C266.5,251.8,353.1,338.4,329.2,362.3z"
	/>
<path class="st1" d="M506.7,275.7c23.9,23.9,23.9,62.7,0,86.6c-23.9,23.9-62.7,23.9-86.6,0C396.1,338.4,482.7,251.8,506.7,275.7z"/>
<path class="st0" d="M290.4,184.3c-19.9-19.9-31.2-45.1-34-71c-3.2,2.4-6.2,5-9.1,7.8c-31.7,31.7-31.7,83.1,0,114.8
	c31.7,31.7,83.1,31.7,114.8,0c5.2-5.2,9.5-10.9,13-16.9C344.4,219.2,313.7,207.6,290.4,184.3z"/>
<path class="st0" d="M449.9,194.5c-22,17.5-48.3,25.8-74.4,25.6c2,3.4,4.2,6.7,6.7,9.9c27.8,35.1,78.9,41,114,13.2
	c35.1-27.8,41-78.9,13.2-114c-4.5-5.7-9.7-10.7-15.3-14.8C490.8,144.8,475.8,174,449.9,194.5z"/>
<g>
</g>
<g>
</g>
<g>
</g>
<g>
</g>
<g>
</g>
</svg>
